REM DIRINDEX 1\2\4,1\2\5,1\3\6,1\3\7
REM DIRNAME cjc099,folder01,folder02,folder03,folder04,folder05,folder06
TITLE ""
FILE "bunpo2_05.mp3" MP3
  TRACK 01 AUDIO
    TITLE "7:cjc099_431"
    INDEX 01 00:00:00
  TRACK 02 AUDIO
    TITLE "0:"
    INDEX 01 00:01:40
  TRACK 03 AUDIO
    TITLE "7:cjc099_432"
    INDEX 01 00:02:12
  TRACK 04 AUDIO
    TITLE "0:"
    INDEX 01 00:03:31
  TRACK 05 AUDIO
    TITLE "6:cjc099_433"
    INDEX 01 00:03:55
  TRACK 06 AUDIO
    TITLE "0:"
    INDEX 01 00:08:26
  TRACK 07 AUDIO
    TITLE "5:cjc099_434"
    INDEX 01 00:08:68
  TRACK 08 AUDIO
    TITLE "0:"
    INDEX 01 00:10:14
  TRACK 09 AUDIO
    TITLE "4:cjc099_435"
    INDEX 01 00:10:31
  TRACK 10 AUDIO
    TITLE "0:"
    INDEX 01 00:15:30
  TRACK 11 AUDIO
    TITLE "7:cjc099_436"
    INDEX 01 00:17:04
  TRACK 12 AUDIO
    TITLE "0:"
    INDEX 01 00:18:21
  TRACK 13 AUDIO
    TITLE "6:cjc099_437"
    INDEX 01 00:18:41
  TRACK 14 AUDIO
    TITLE "0:"
    INDEX 01 00:24:63
  TRACK 15 AUDIO
    TITLE "5:cjc099_438"
    INDEX 01 00:25:31
  TRACK 16 AUDIO
    TITLE "0:"
    INDEX 01 00:26:48
  TRACK 17 AUDIO
    TITLE "4:cjc099_439"
    INDEX 01 00:26:71
  TRACK 18 AUDIO
    TITLE "0:"
    INDEX 01 00:33:07
  TRACK 19 AUDIO
    TITLE "7:cjc099_440"
    INDEX 01 00:34:55
  TRACK 20 AUDIO
    TITLE "0:"
    INDEX 01 00:36:01
  TRACK 21 AUDIO
    TITLE "6:cjc099_441"
    INDEX 01 00:36:21
  TRACK 22 AUDIO
    TITLE "0:"
    INDEX 01 00:42:72
  TRACK 23 AUDIO
    TITLE "5:cjc099_442"
    INDEX 01 00:43:40
  TRACK 24 AUDIO
    TITLE "0:"
    INDEX 01 00:44:56
  TRACK 25 AUDIO
    TITLE "4:cjc099_443"
    INDEX 01 00:45:00
  TRACK 26 AUDIO
    TITLE "0:"
    INDEX 01 00:51:62
  TRACK 27 AUDIO
    TITLE "7:cjc099_444"
    INDEX 01 00:53:35
  TRACK 28 AUDIO
    TITLE "0:"
    INDEX 01 00:54:54
  TRACK 29 AUDIO
    TITLE "6:cjc099_445"
    INDEX 01 00:55:03
  TRACK 30 AUDIO
    TITLE "0:"
    INDEX 01 01:02:36
  TRACK 31 AUDIO
    TITLE "5:cjc099_446"
    INDEX 01 01:03:02
  TRACK 32 AUDIO
    TITLE "0:"
    INDEX 01 01:04:23
  TRACK 33 AUDIO
    TITLE "4:cjc099_447"
    INDEX 01 01:04:47
  TRACK 34 AUDIO
    TITLE "0:"
    INDEX 01 01:12:17
  TRACK 35 AUDIO
    TITLE "7:cjc099_448"
    INDEX 01 01:13:59
  TRACK 36 AUDIO
    TITLE "0:"
    INDEX 01 01:15:11
  TRACK 37 AUDIO
    TITLE "6:cjc099_449"
    INDEX 01 01:15:29
  TRACK 38 AUDIO
    TITLE "0:"
    INDEX 01 01:24:10
  TRACK 39 AUDIO
    TITLE "5:cjc099_450"
    INDEX 01 01:24:61
  TRACK 40 AUDIO
    TITLE "0:"
    INDEX 01 01:26:13
  TRACK 41 AUDIO
    TITLE "4:cjc099_451"
    INDEX 01 01:26:34
  TRACK 42 AUDIO
    TITLE "0:"
    INDEX 01 01:34:71
  TRACK 43 AUDIO
    TITLE "7:cjc099_452"
    INDEX 01 01:36:43
  TRACK 44 AUDIO
    TITLE "0:"
    INDEX 01 01:38:00
  TRACK 45 AUDIO
    TITLE "6:cjc099_453"
    INDEX 01 01:38:24
  TRACK 46 AUDIO
    TITLE "0:"
    INDEX 01 01:43:60
  TRACK 47 AUDIO
    TITLE "5:cjc099_454"
    INDEX 01 01:44:32
  TRACK 48 AUDIO
    TITLE "0:"
    INDEX 01 01:45:55
  TRACK 49 AUDIO
    TITLE "4:cjc099_455"
    INDEX 01 01:46:02
  TRACK 50 AUDIO
    TITLE "0:"
    INDEX 01 01:51:38
  TRACK 51 AUDIO
    TITLE "7:cjc099_456"
    INDEX 01 01:53:10
  TRACK 52 AUDIO
    TITLE "0:"
    INDEX 01 01:54:35
  TRACK 53 AUDIO
    TITLE "6:cjc099_457"
    INDEX 01 01:54:60
  TRACK 54 AUDIO
    TITLE "0:"
    INDEX 01 02:01:29
  TRACK 55 AUDIO
    TITLE "5:cjc099_458"
    INDEX 01 02:01:72
  TRACK 56 AUDIO
    TITLE "0:"
    INDEX 01 02:03:16
  TRACK 57 AUDIO
    TITLE "4:cjc099_459"
    INDEX 01 02:03:30
  TRACK 58 AUDIO
    TITLE "0:"
    INDEX 01 02:10:16
  TRACK 59 AUDIO
    TITLE "7:cjc099_460"
    INDEX 01 02:11:64
  TRACK 60 AUDIO
    TITLE "0:"
    INDEX 01 02:13:12
  TRACK 61 AUDIO
    TITLE "6:cjc099_461"
    INDEX 01 02:13:32
  TRACK 62 AUDIO
    TITLE "0:"
    INDEX 01 02:21:26
  TRACK 63 AUDIO
    TITLE "5:cjc099_462"
    INDEX 01 02:22:02
  TRACK 64 AUDIO
    TITLE "0:"
    INDEX 01 02:23:25
  TRACK 65 AUDIO
    TITLE "4:cjc099_463"
    INDEX 01 02:23:48
  TRACK 66 AUDIO
    TITLE "0:"
    INDEX 01 02:31:14
  TRACK 67 AUDIO
    TITLE "7:cjc099_464"
    INDEX 01 02:32:59
  TRACK 68 AUDIO
    TITLE "0:"
    INDEX 01 02:34:09
  TRACK 69 AUDIO
    TITLE "6:cjc099_465"
    INDEX 01 02:34:24
  TRACK 70 AUDIO
    TITLE "0:"
    INDEX 01 02:39:47
  TRACK 71 AUDIO
    TITLE "5:cjc099_466"
    INDEX 01 02:40:23
  TRACK 72 AUDIO
    TITLE "0:"
    INDEX 01 02:41:48
  TRACK 73 AUDIO
    TITLE "4:cjc099_467"
    INDEX 01 02:41:69
  TRACK 74 AUDIO
    TITLE "0:"
    INDEX 01 02:47:31
  TRACK 75 AUDIO
    TITLE "7:cjc099_468"
    INDEX 01 02:49:08
  TRACK 76 AUDIO
    TITLE "0:"
    INDEX 01 02:50:27
  TRACK 77 AUDIO
    TITLE "6:cjc099_469"
    INDEX 01 02:50:51
  TRACK 78 AUDIO
    TITLE "0:"
    INDEX 01 02:55:56
  TRACK 79 AUDIO
    TITLE "5:cjc099_470"
    INDEX 01 02:56:30
  TRACK 80 AUDIO
    TITLE "0:"
    INDEX 01 02:57:51
  TRACK 81 AUDIO
    TITLE "4:cjc099_471"
    INDEX 01 02:57:74
  TRACK 82 AUDIO
    TITLE "0:"
    INDEX 01 03:03:01
